# xmcd
#
# Track frame offsets: 
#        150
#        17502
#        34128
#        55244
#        72727
#        86951
#        100967
#        113345
#        136014
#        151118
#        168446
#        186422
#        207757
#
# Disc length: 3113 seconds
#
# Revision: 0
# Processed by: cddbd v1.5.2PL0 Copyright (c) Steve Scherf et al.
# Submitted via: ExactAudioCopy v0.95b1
#
DISCID=aa0c270d
DTITLE=Simon McBride - RIch Man Falling
DYEAR=2008
DGENRE=Blues
TTITLE0=Down to the River
TTITLE1=Standing Still
TTITLE2=Fat Pockets
TTITLE3=So Much Love to Give
TTITLE4=Pushing it Out
TTITLE5=Rich Man Falling
TTITLE6=Devil Woman
TTITLE7=Be My Friend
TTITLE8=Change
TTITLE9=Tell Me Why
TTITLE10=You Got a Problem
TTITLE11=DC
TTITLE12=Power of Soul
EXTD=
EXTT0=
EXTT1=
EXTT2=
EXTT3=
EXTT4=
EXTT5=
EXTT6=
EXTT7=
EXTT8=
EXTT9=
EXTT10=
EXTT11=
EXTT12=
PLAYORDER=
